<svg xmlns="http://www.w3.org/2000/svg" width="256" height="256">
    <path d="M128 68c30.0782 0 54.9872 22.1325 59.3295 51h45.1429c2.4777 0 3.4804.2785 4.4581.8014.9778.523 1.7452 1.2903 2.2681 2.268.523.9778.8014 1.9805.8014 4.4582v2.9448c0 2.4777-.2785 3.4804-.8014 4.4581-.523.9778-1.2903 1.7452-2.268 2.2681-.9778.523-1.9805.8014-4.4582.8014l-45.143.001C182.9866 165.868 158.0779 188 128 188s-54.9866-22.132-59.3294-50.999L23.5276 137c-2.4777 0-3.4804-.2785-4.4581-.8014-.9778-.523-1.7452-1.2903-2.2681-2.268-.523-.9778-.8014-1.9805-.8014-4.4582v-2.9448c0-2.4777.2785-3.4804.8014-4.4581.523-.9778 1.2903-1.7452 2.268-2.2681.9778-.523 1.9805-.8014 4.4582-.8014h45.1429C73.0128 90.1326 97.9217 68 128 68Zm0 18c-23.196 0-42 18.804-42 42s18.804 42 42 42 42-18.804 42-42-18.804-42-42-42Z"/>
</svg>